<svg width="136" height="130" viewBox="0 0 136 130" fill="none" xmlns="http://www.w3.org/2000/svg">
<path opacity="0.3" d="M100.208 26.23C111.622 30.3955 122.448 42.0079 122.679 57.1261C122.91 72.2443 119.02 87.6816 98.1342 93.8393C78.5162 99.6218 32.011 102.084 19.7438 83.3911C8.17699 65.7805 12.0734 36.9714 32.555 27.6012C46.92 21.0167 77.9144 18.0931 100.208 26.23Z" fill="#E6E6E6"/>
<path opacity="0.49" d="M49.7148 52.5424C49.7148 51.5337 49.3989 50.5663 48.8365 49.8531C48.2741 49.1398 47.5113 48.7391 46.716 48.7391C46.5541 48.7405 46.3926 48.7592 46.2332 48.7952C45.8883 47.9785 45.3749 47.296 44.7479 46.8205C44.1209 46.3451 43.4039 46.0946 42.6734 46.0958H42.5272C42.6228 45.6135 42.6719 45.1183 42.6734 44.6211C42.6401 43.036 42.1203 41.53 41.2245 40.4238C40.3288 39.3177 39.1279 38.6987 37.8777 38.6987C36.6275 38.6987 35.4266 39.3177 34.5309 40.4238C33.6351 41.53 33.1153 43.036 33.082 44.6211C33.0835 45.1183 33.1326 45.6135 33.2282 46.0958H33.082C32.5415 46.0759 32.0033 46.1938 31.4993 46.4424C30.9954 46.691 30.5359 47.0653 30.148 47.5431C29.7601 48.021 29.4518 48.5927 29.2412 49.2244C29.0307 49.8561 28.9222 50.5349 28.9222 51.2207C28.9222 51.9065 29.0307 52.5854 29.2412 53.2171C29.4518 53.8487 29.7601 54.4204 30.148 54.8983C30.5359 55.3761 30.9954 55.7505 31.4993 55.9991C32.0033 56.2477 32.5415 56.3655 33.082 56.3456H47.107V56.3111C47.8281 56.1909 48.4902 55.7423 48.97 55.049C49.4497 54.3556 49.7144 53.4648 49.7148 52.5424Z" fill="#E6E6E6"/>
<path opacity="0.49" d="M110.962 66.7938C110.963 66.4896 110.916 66.1882 110.824 65.907C110.733 65.6258 110.598 65.3703 110.429 65.1552C110.259 64.94 110.058 64.7695 109.836 64.6533C109.614 64.5372 109.376 64.4777 109.137 64.4782C109.039 64.4795 108.941 64.4896 108.844 64.5084C108.634 64.0119 108.322 63.5969 107.94 63.3076C107.559 63.0183 107.123 62.8655 106.678 62.8655H106.587C106.647 62.5726 106.678 62.2713 106.678 61.9686C106.678 60.9862 106.371 60.0441 105.823 59.3494C105.275 58.6548 104.532 58.2645 103.758 58.2645C102.983 58.2645 102.24 58.6548 101.693 59.3494C101.145 60.0441 100.837 60.9862 100.837 61.9686C100.838 62.271 100.868 62.572 100.926 62.8655H100.837C100.506 62.8499 100.177 62.9191 99.8674 63.0688C99.5583 63.2186 99.2761 63.4459 99.0377 63.7371C98.7994 64.0284 98.6098 64.3776 98.4803 64.7638C98.3509 65.1501 98.2841 65.5656 98.2841 65.9853C98.2841 66.4051 98.3509 66.8205 98.4803 67.2068C98.6098 67.5931 98.7994 67.9423 99.0377 68.2335C99.2761 68.5247 99.5583 68.752 99.8674 68.9018C100.177 69.0515 100.506 69.1207 100.837 69.1051H109.375V69.0835C109.813 69.0113 110.216 68.7392 110.508 68.3179C110.801 67.8966 110.962 67.3549 110.962 66.7938Z" fill="#E6E6E6"/>
<path opacity="0.49" d="M58.1094 34.6084C58.1094 34.016 58.295 33.4478 58.6252 33.0289C58.9555 32.61 59.4035 32.3747 59.8706 32.3747C59.9653 32.3753 60.0598 32.3869 60.1528 32.4092C60.3562 31.9303 60.6579 31.53 61.026 31.2507C61.3941 30.9713 61.8149 30.8233 62.2438 30.8224H62.3322C62.2734 30.541 62.2437 30.2511 62.2438 29.9599C62.2409 29.4517 62.3236 28.9485 62.4862 28.4839C62.6488 28.0193 62.8877 27.6041 63.1869 27.2659C63.4861 26.9277 63.8387 26.6743 64.2212 26.5226C64.6038 26.3709 65.0074 26.3245 65.4052 26.3863C65.803 26.4481 66.1858 26.6168 66.5281 26.8812C66.8705 27.1455 67.1644 27.4994 67.3903 27.9192C67.6163 28.339 67.769 28.8151 67.8384 29.3158C67.9078 29.8164 67.8922 30.33 67.7926 30.8224H67.881C68.5122 30.8224 69.1176 31.1404 69.5639 31.7065C70.0103 32.2725 70.261 33.0403 70.261 33.8408C70.261 34.6414 70.0103 35.4091 69.5639 35.9752C69.1176 36.5413 68.5122 36.8593 67.881 36.8593H59.6394C59.2111 36.7874 58.8185 36.5184 58.5364 36.1034C58.2543 35.6883 58.1023 35.1563 58.1094 34.6084Z" fill="#E6E6E6"/>
<path d="M59.2817 71.0837L58.8451 71.0309L58.3413 77.7273L58.7779 77.7802L59.2817 71.0837Z" fill="#24285B"/>
<path d="M63.3658 72.1969L54.6652 71.1447L59.1906 69.3509L63.3658 72.1969Z" fill="#FFD200"/>
<path d="M49.8601 70.7666L49.426 70.8458L50.1816 77.504L50.6157 77.4248L49.8601 70.7666Z" fill="#24285B"/>
<path d="M54.0396 70.623L45.39 72.2055L49.453 69.1051L54.0396 70.623Z" fill="#FFD200"/>
<path d="M40.5289 71.9055L40.0905 71.9214L40.2423 78.6455L40.6807 78.6296L40.5289 71.9055Z" fill="#24285B"/>
<path d="M44.6896 72.3694L35.955 72.6842L40.2696 70.1961L44.6896 72.3694Z" fill="#FFD200"/>
<path d="M64.94 53.8877C65.5534 53.5426 66.2164 53.3618 66.8874 53.3566C67.5585 53.3514 68.2231 53.522 68.8398 53.8576C68.4427 53.1422 68.1758 52.3241 68.0582 51.4621C67.9406 50.6001 67.9753 49.7157 68.1598 48.8728C70.5636 50.395 70.9818 53.1849 71.0056 54.8235C71.0748 53.5672 71.4579 52.3715 72.0993 51.4101C72.7406 50.4486 73.6068 49.7713 74.5722 49.4765C74.6262 50.478 74.4897 51.4813 74.1744 52.402C73.859 53.3227 73.374 54.1339 72.76 54.7674C75.1774 53.8187 77.3228 55.6773 77.3228 55.6773C74.9156 58.1438 73.0864 57.1606 72.0154 56.4405C72.8518 57.6953 74.2662 61.0156 75.0754 65.2717C75.3814 66.8844 75.4154 69.3035 75.4392 71.7657H73.2258C73.2258 67.1949 72.8246 60.9337 70.771 56.5871C68.8534 60.8 65.586 59.6616 65.586 59.6616C66.0402 58.2524 66.8874 57.1043 67.966 56.4362C67.3532 56.2885 66.7698 55.987 66.2502 55.5493C65.7305 55.1117 65.2851 54.5468 64.94 53.8877Z" fill="#E6E6E6"/>
<path d="M92.3542 58.1481C91.8172 57.6384 91.2031 57.2747 90.5502 57.0795C89.8974 56.8844 89.2198 56.8621 88.5598 57.014C89.0727 56.4274 89.4767 55.704 89.743 54.8958C90.0093 54.0876 90.1312 53.2147 90.1 52.3397C87.4888 53.1418 86.5844 55.7549 86.2716 57.3331C86.4279 56.0893 86.2676 54.8146 85.814 53.6942C85.3603 52.5737 84.6369 51.6658 83.7488 51.1021C83.5144 52.0677 83.4678 53.0909 83.6128 54.0843C83.7579 55.0778 84.0904 56.0119 84.5818 56.807C82.3922 55.1943 79.9748 56.3974 79.9748 56.3974C81.8822 59.4848 84.0548 59.3339 85.2244 58.9329C83.2495 60.8615 81.6491 63.3381 80.546 66.1729C79.9612 67.6563 79.4036 70.2133 78.9616 72.6108L81.1206 73.2404C81.9094 68.7774 83.4258 62.7965 86.1968 59.1442C87.3188 63.7969 90.7052 63.6158 90.7052 63.6158C90.5126 62.1144 89.8904 60.7558 88.9576 59.7996C89.582 59.8252 90.2041 59.6923 90.7874 59.4087C91.3706 59.125 91.9034 58.6965 92.3542 58.1481Z" fill="#E6E6E6"/>
<path d="M61.7882 81.3859C61.7882 74.0554 68.442 68.1435 76.653 68.1435C84.864 68.1435 91.5178 74.0554 91.5178 81.3859H61.7882Z" fill="#E6E6E6"/>
<path opacity="0.09" d="M61.7882 81.3859C61.7882 74.0554 68.442 68.1435 76.653 68.1435C84.864 68.1435 91.5178 74.0554 91.5178 81.3859H61.7882Z" fill="black"/>
<path d="M29.257 84.2621C29.257 79.4196 38.4166 75.4956 49.7148 75.4956C61.013 75.4956 70.1726 79.4196 70.1726 84.2621H29.257Z" fill="#E6E6E6"/>
<path d="M111.279 80.2993H29.3658C28.3478 80.2993 27.3714 80.8122 26.6515 81.7252C25.9316 82.6382 25.5272 83.8765 25.5272 85.1676C25.5272 86.4588 25.9316 87.6971 26.6515 88.6101C27.3714 89.5231 28.3478 90.036 29.3658 90.036H24.5072C23.4892 90.036 22.5128 90.5489 21.7929 91.4619C21.073 92.3749 20.6686 93.6132 20.6686 94.9043C20.6686 96.1955 21.073 97.4338 21.7929 98.3468C22.5128 99.2598 23.4892 99.7727 24.5072 99.7727H29.7058C29.012 100.344 28.4825 101.185 28.1963 102.169C27.9102 103.154 27.8826 104.229 28.1178 105.235C28.3529 106.241 28.8383 107.123 29.5013 107.75C30.1643 108.378 30.9696 108.717 31.7968 108.716H88.0124C88.8394 108.716 89.6441 108.376 90.3065 107.749C90.969 107.121 91.4538 106.238 91.6885 105.233C91.9233 104.227 91.8954 103.152 91.6092 102.168C91.3229 101.184 90.7935 100.344 90.1 99.7727H106.42C107.438 99.7727 108.414 99.2598 109.134 98.3468C109.854 97.4338 110.259 96.1955 110.259 94.9043C110.259 93.6132 109.854 92.3749 109.134 91.4619C108.414 90.5489 107.438 90.036 106.42 90.036H111.282C112.3 90.036 113.276 89.5231 113.996 88.6101C114.716 87.6971 115.121 86.4588 115.121 85.1676C115.121 83.8765 114.716 82.6382 113.996 81.7252C113.276 80.8122 112.3 80.2993 111.282 80.2993H111.279Z" fill="#68E1FD"/>
<path d="M98.7462 48.5494C103.101 48.5494 106.631 44.0723 106.631 38.5496C106.631 33.0269 103.101 28.5499 98.7462 28.5499C94.3917 28.5499 90.8616 33.0269 90.8616 38.5496C90.8616 44.0723 94.3917 48.5494 98.7462 48.5494Z" fill="#FFD200"/>
<path d="M100.725 81.925H92.1944C91.7268 81.925 91.3478 82.4057 91.3478 82.9987C91.3478 83.5917 91.7268 84.0724 92.1944 84.0724H100.725C101.193 84.0724 101.572 83.5917 101.572 82.9987C101.572 82.4057 101.193 81.925 100.725 81.925Z" fill="#FFD200"/>
<path d="M99.2324 85.0987H90.7018C90.2342 85.0987 89.8552 85.5794 89.8552 86.1724C89.8552 86.7654 90.2342 87.2461 90.7018 87.2461H99.2324C99.7 87.2461 100.079 86.7654 100.079 86.1724C100.079 85.5794 99.7 85.0987 99.2324 85.0987Z" fill="#FFD200"/>
<path opacity="0.44" d="M57.1438 96.0816H42.415C41.8798 96.0816 41.446 96.6318 41.446 97.3105C41.446 97.9892 41.8798 98.5394 42.415 98.5394H57.1438C57.6789 98.5394 58.1128 97.9892 58.1128 97.3105C58.1128 96.6318 57.6789 96.0816 57.1438 96.0816Z" fill="white"/>
<path opacity="0.44" d="M72.2602 89.1908H57.5314C56.9962 89.1908 56.5624 89.741 56.5624 90.4198C56.5624 91.0985 56.9962 91.6487 57.5314 91.6487H72.2602C72.7954 91.6487 73.2292 91.0985 73.2292 90.4198C73.2292 89.741 72.7954 89.1908 72.2602 89.1908Z" fill="white"/>
<path opacity="0.44" d="M81.736 99.9236H72.4234C71.8882 99.9236 71.4544 100.474 71.4544 101.153C71.4544 101.831 71.8882 102.382 72.4234 102.382H81.736C82.2712 102.382 82.705 101.831 82.705 101.153C82.705 100.474 82.2712 99.9236 81.736 99.9236Z" fill="white"/>
<path opacity="0.44" d="M83.742 81.8129H74.4294C73.8942 81.8129 73.4604 82.3631 73.4604 83.0418C73.4604 83.7205 73.8942 84.2707 74.4294 84.2707H83.742C84.2772 84.2707 84.711 83.7205 84.711 83.0418C84.711 82.3631 84.2772 81.8129 83.742 81.8129Z" fill="white"/>
<path opacity="0.44" d="M48.1916 84.9434H33.4628C32.9276 84.9434 32.4938 85.4936 32.4938 86.1724C32.4938 86.8511 32.9276 87.4013 33.4628 87.4013H48.1916C48.7268 87.4013 49.1606 86.8511 49.1606 86.1724C49.1606 85.4936 48.7268 84.9434 48.1916 84.9434Z" fill="white"/>
<path d="M101.337 88.2724H95.4142C94.9466 88.2724 94.5676 88.7531 94.5676 89.3461C94.5676 89.9391 94.9466 90.4198 95.4142 90.4198H101.337C101.805 90.4198 102.184 89.9391 102.184 89.3461C102.184 88.7531 101.805 88.2724 101.337 88.2724Z" fill="#FFD200"/>
</svg>
