<svg width="106" height="88" viewBox="0 0 106 88" fill="none" xmlns="http://www.w3.org/2000/svg">
<g clip-path="url(#clip0_9_261)">
<path d="M45.1872 59.6732C45.1872 59.6732 59.2643 57.7742 64.1912 54.7675C69.1182 51.7607 105.718 50.3365 105.718 59.6732C105.718 69.01 63.6282 73.1245 63.6282 73.1245L41.5272 71.7002L45.1872 59.6732Z" fill="#FBBEBE"/>
<path opacity="0.1" d="M45.1872 59.6732C45.1872 59.6732 59.2643 57.7742 64.1912 54.7675C69.1182 51.7607 105.718 50.3365 105.718 59.6732C105.718 69.01 63.6282 73.1245 63.6282 73.1245L41.5272 71.7002L45.1872 59.6732Z" fill="black"/>
<path d="M49.2696 57.9325L46.3134 67.5858L0 68.2188V53.9763C0 53.9763 17.7371 49.387 31.8141 59.1985C31.8141 59.1985 48.425 56.983 49.2696 57.9325Z" fill="#6C63FF"/>
<path opacity="0.1" d="M49.2696 57.9169L46.3134 67.5702L0 68.2032V53.9607C0 53.9607 17.7371 49.3714 31.8141 59.1829C31.8141 59.1829 48.425 56.9674 49.2696 57.9169Z" fill="black"/>
<path d="M102.22 53.8971C102.22 54.4365 101.144 54.8369 101.038 55.3572C100.933 55.8732 101.573 56.6579 101.37 57.1508C101.161 57.6547 100.914 58.1376 100.632 58.5943C100.367 59.0208 99.5483 58.9585 99.2127 59.3585C98.8841 59.7218 98.536 60.0621 98.1704 60.3775C97.8142 60.7104 97.3317 60.7803 96.9267 61.0868C96.5417 61.3783 96.5883 62.4473 96.1623 62.7127C95.7553 62.9663 95.1322 62.7623 94.6907 62.9903C94.2669 63.2091 94.0434 64.0004 93.5904 64.194C93.1534 64.3806 92.6126 64.3003 92.1507 64.4619C91.7036 64.6184 91.2033 64.593 90.7349 64.7247C90.2799 64.8526 89.9325 65.6192 89.4592 65.7226C88.9981 65.8233 88.4578 65.5547 87.981 65.631C87.5154 65.7054 86.9739 65.043 86.495 65.0931C86.0262 65.1422 85.5844 65.4489 85.1043 65.4737C84.6336 65.498 84.1682 65.731 83.6879 65.731C83.2078 65.731 82.7123 66.2374 82.2416 66.2131C81.7615 66.1884 81.3269 65.4208 80.8581 65.3717C80.3791 65.3216 79.8077 66.1234 79.3421 66.0489C78.8653 65.9726 78.4877 65.1878 78.0267 65.0871C77.5533 64.9837 76.9419 65.5446 76.4869 65.4167C76.0183 65.2849 75.7402 64.372 75.2931 64.2155C74.8312 64.0538 74.2586 64.2728 73.8216 64.0861C73.3685 63.8926 72.8165 63.9237 72.3926 63.7048C71.9511 63.4769 71.6342 62.9375 71.2272 62.6838C70.8012 62.4184 70.6048 61.7602 70.2197 61.4687C69.8147 61.1622 69.1976 61.2013 68.8415 60.8683C68.4654 60.5167 67.761 60.4984 67.4436 60.1202C67.108 59.7201 66.9722 59.0484 66.7072 58.6218C66.4282 58.1725 66.9759 57.2227 66.781 56.7478C66.5788 56.2551 65.7335 56.0549 65.6286 55.5389C65.5204 55.0001 65.4649 54.4495 65.463 53.8971C65.463 53.3578 66.186 52.9456 66.2918 52.4253C66.3967 51.9092 65.8646 51.1681 66.0668 50.6753C66.2617 50.2003 66.2368 49.4703 66.516 49.021C66.781 48.5945 67.4423 48.4273 67.7779 48.0273C68.0953 47.6491 68.6632 47.5436 69.0392 47.192C69.3954 46.8591 69.35 45.855 69.755 45.5484C70.14 45.257 70.6777 45.124 71.1036 44.8586C71.5106 44.605 72.0866 44.6478 72.5282 44.4198C72.952 44.201 73.6158 44.6321 74.0688 44.4386C74.5058 44.252 74.8602 43.8441 75.3221 43.6824C75.7692 43.526 75.9793 42.3328 76.4478 42.2011C76.9027 42.0732 77.4625 42.2855 77.9357 42.1821C78.3968 42.0814 79.0172 43.0228 79.494 42.9465C79.9596 42.872 80.3078 41.6153 80.7868 41.5652C81.2556 41.5161 81.7841 42.167 82.2642 42.1422C82.735 42.1179 83.2077 42.4993 83.6879 42.4993C84.1681 42.4993 84.6465 41.9759 85.1171 42.0002C85.5972 42.025 86.0206 42.7167 86.4893 42.7657C86.9683 42.8159 87.5564 41.7638 88.022 41.8383C88.4987 41.9145 88.8671 42.7278 89.3282 42.8285C89.8016 42.9319 90.3945 42.427 90.8495 42.5549C91.3181 42.6866 91.6 43.5511 92.0471 43.7076C92.509 43.8692 92.7936 44.479 93.2306 44.6657C93.6837 44.8592 94.5254 43.9536 94.9493 44.1725C95.3908 44.4004 95.7722 44.795 96.1792 45.0486C96.6052 45.314 97.2823 45.1805 97.6674 45.472C98.0724 45.7785 98.172 46.6014 98.5281 46.9344C98.9042 47.286 99.5244 47.3918 99.8417 47.7701C100.177 48.1701 100.224 48.8869 100.489 49.3135C100.768 49.7628 100.759 50.3853 100.954 50.8601C101.156 51.3529 101.696 51.7256 101.801 52.2415C101.907 52.7617 102.22 53.3579 102.22 53.8971Z" fill="#3F3D56"/>
<path d="M51.5219 63.7877C51.5219 63.7877 67.429 54.6092 77.7052 58.0907C87.9814 61.5722 102.34 55.5587 104.029 57.616C105.718 59.6732 108.112 81.8283 87.8406 83.0943C67.5697 84.3603 50.255 79.2963 50.255 79.2963L51.5219 63.7877Z" fill="#FBBEBE"/>
<path d="M47.7758 62.8103C47.7758 62.8103 54.0558 62.3635 53.7742 64.8955C53.4927 67.4275 53.2112 87.0505 51.5219 87.5252C49.8327 88 36.4595 88 30.9695 88H0V57.6615C0 57.6615 21.9602 56.1918 32.9402 62.3635C32.9402 62.3635 46.1413 62.1492 47.7758 62.8103Z" fill="#6C63FF"/>
<path d="M77.1957 15.3565C76.5956 15.3946 76.0169 15.6199 75.5243 16.007C75.0317 16.3942 74.6449 16.9279 74.407 17.5484C73.7097 19.4433 74.6075 21.6691 75.9554 23.0508C77.3032 24.4326 79.0345 25.2224 80.6076 26.2605C82.7205 27.6549 84.6191 29.5905 85.6763 32.0752C86.7335 34.5599 86.8459 37.6377 85.6032 40.0114C84.4498 42.2146 82.3525 43.5333 80.3522 44.7494" stroke="#3F3D56" stroke-miterlimit="10"/>
<path d="M82.8265 3.80424C82.2264 3.84234 81.6477 4.0676 81.1551 4.45476C80.6626 4.84192 80.2757 5.37566 80.0378 5.99615C79.3405 7.89101 80.2384 10.1168 81.5862 11.4986C82.934 12.8803 84.6653 13.6701 86.2384 14.7082C88.3513 16.1026 90.2499 18.0383 91.3071 20.5229C92.3643 23.0076 92.4767 26.0854 91.234 28.4592C90.0806 30.6624 87.9833 31.981 85.983 33.1971" stroke="#3F3D56" stroke-miterlimit="10"/>
<path d="M101.34 6.46119C100.845 6.07837 100.265 5.85819 99.6643 5.82535C99.064 5.79251 98.4674 5.9483 97.9415 6.27526C96.3582 7.29369 95.8561 9.67155 96.1694 11.6917C96.4827 13.7118 97.4216 15.5278 98.1002 17.4313C99.0115 19.9879 99.4588 22.8251 98.9417 25.5173C98.4245 28.2096 96.8374 30.7207 94.5622 31.7424C92.4503 32.6908 90.0739 32.2901 87.83 31.8751" stroke="#3F3D56" stroke-miterlimit="10"/>
<path d="M85.0252 30.3427C86.8911 30.3427 88.4037 29.5168 88.4037 28.498C88.4037 27.4792 86.8911 26.6532 85.0252 26.6532C83.1593 26.6532 81.6467 27.4792 81.6467 28.498C81.6467 29.5168 83.1593 30.3427 85.0252 30.3427Z" fill="#57B894"/>
<path d="M84.6029 30.0262C86.4688 30.0262 87.9814 29.2003 87.9814 28.1815C87.9814 27.1627 86.4688 26.3368 84.6029 26.3368C82.737 26.3368 81.2244 27.1627 81.2244 28.1815C81.2244 29.2003 82.737 30.0262 84.6029 30.0262Z" stroke="#3F3D56" stroke-miterlimit="10"/>
<path d="M92.3453 28.7602C94.2112 28.7602 95.7238 27.9343 95.7238 26.9155C95.7238 25.8967 94.2112 25.0707 92.3453 25.0707C90.4794 25.0707 88.9668 25.8967 88.9668 26.9155C88.9668 27.9343 90.4794 28.7602 92.3453 28.7602Z" fill="#57B894"/>
<path d="M91.923 28.4437C93.7889 28.4437 95.3015 27.6178 95.3015 26.599C95.3015 25.5802 93.7889 24.7542 91.923 24.7542C90.0571 24.7542 88.5445 25.5802 88.5445 26.599C88.5445 27.6178 90.0571 28.4437 91.923 28.4437Z" stroke="#3F3D56" stroke-miterlimit="10"/>
<path d="M93.4714 35.7232C95.3373 35.7232 96.8499 34.8973 96.8499 33.8785C96.8499 32.8597 95.3373 32.0338 93.4714 32.0338C91.6056 32.0338 90.093 32.8597 90.093 33.8785C90.093 34.8973 91.6056 35.7232 93.4714 35.7232Z" fill="#57B894"/>
<path d="M93.0491 35.4067C94.915 35.4067 96.4276 34.5808 96.4276 33.562C96.4276 32.5432 94.915 31.7173 93.0491 31.7173C91.1833 31.7173 89.6707 32.5432 89.6707 33.562C89.6707 34.5808 91.1833 35.4067 93.0491 35.4067Z" stroke="#3F3D56" stroke-miterlimit="10"/>
<path d="M92.7676 18.3157C94.6335 18.3157 96.1461 17.4898 96.1461 16.471C96.1461 15.4522 94.6335 14.6262 92.7676 14.6262C90.9017 14.6262 89.3891 15.4522 89.3891 16.471C89.3891 17.4898 90.9017 18.3157 92.7676 18.3157Z" fill="#57B894"/>
<path d="M92.3453 17.9992C94.2112 17.9992 95.7238 17.1733 95.7238 16.1545C95.7238 15.1357 94.2112 14.3097 92.3453 14.3097C90.4794 14.3097 88.9668 15.1357 88.9668 16.1545C88.9668 17.1733 90.4794 17.9992 92.3453 17.9992Z" stroke="#3F3D56" stroke-miterlimit="10"/>
<path d="M84.3214 17.208C86.1873 17.208 87.6999 16.3821 87.6999 15.3632C87.6999 14.3444 86.1873 13.5185 84.3214 13.5185C82.4555 13.5185 80.9429 14.3444 80.9429 15.3632C80.9429 16.3821 82.4555 17.208 84.3214 17.208Z" fill="#57B894"/>
<path d="M83.8991 16.8915C85.765 16.8915 87.2776 16.0656 87.2776 15.0467C87.2776 14.0279 85.765 13.202 83.8991 13.202C82.0332 13.202 80.5206 14.0279 80.5206 15.0467C80.5206 16.0656 82.0332 16.8915 83.8991 16.8915Z" stroke="#3F3D56" stroke-miterlimit="10"/>
<path d="M88.1222 13.2517C89.9881 13.2517 91.5007 12.4258 91.5007 11.407C91.5007 10.3882 89.9881 9.56225 88.1222 9.56225C86.2563 9.56225 84.7437 10.3882 84.7437 11.407C84.7437 12.4258 86.2563 13.2517 88.1222 13.2517Z" fill="#57B894"/>
<path d="M87.6999 12.9352C89.5658 12.9352 91.0784 12.1093 91.0784 11.0905C91.0784 10.0717 89.5658 9.24575 87.6999 9.24575C85.834 9.24575 84.3214 10.0717 84.3214 11.0905C84.3214 12.1093 85.834 12.9352 87.6999 12.9352Z" stroke="#3F3D56" stroke-miterlimit="10"/>
<path d="M96.4276 14.043C98.2935 14.043 99.8061 13.2171 99.8061 12.1982C99.8061 11.1794 98.2935 10.3535 96.4276 10.3535C94.5617 10.3535 93.0491 11.1794 93.0491 12.1982C93.0491 13.2171 94.5617 14.043 96.4276 14.043Z" fill="#57B894"/>
<path d="M96.0053 13.7265C97.8712 13.7265 99.3838 12.9006 99.3838 11.8817C99.3838 10.8629 97.8712 10.037 96.0053 10.037C94.1394 10.037 92.6268 10.8629 92.6268 11.8817C92.6268 12.9006 94.1394 13.7265 96.0053 13.7265Z" stroke="#3F3D56" stroke-miterlimit="10"/>
<path d="M102.622 19.2652C104.487 19.2652 106 18.4393 106 17.4205C106 16.4017 104.487 15.5757 102.622 15.5757C100.756 15.5757 99.243 16.4017 99.243 17.4205C99.243 18.4393 100.756 19.2652 102.622 19.2652Z" fill="#57B894"/>
<path d="M102.199 18.9487C104.065 18.9487 105.578 18.1228 105.578 17.104C105.578 16.0852 104.065 15.2592 102.199 15.2592C100.333 15.2592 98.8207 16.0852 98.8207 17.104C98.8207 18.1228 100.333 18.9487 102.199 18.9487Z" stroke="#3F3D56" stroke-miterlimit="10"/>
<path d="M80.8021 10.0867C82.668 10.0867 84.1806 9.26082 84.1806 8.242C84.1806 7.22317 82.668 6.39725 80.8021 6.39725C78.9362 6.39725 77.4236 7.22317 77.4236 8.242C77.4236 9.26082 78.9362 10.0867 80.8021 10.0867Z" fill="#57B894"/>
<path d="M80.3798 9.77024C82.2457 9.77024 83.7583 8.94431 83.7583 7.92549C83.7583 6.90666 82.2457 6.08074 80.3798 6.08074C78.5139 6.08074 77.0013 6.90666 77.0013 7.92549C77.0013 8.94431 78.5139 9.77024 80.3798 9.77024Z" stroke="#3F3D56" stroke-miterlimit="10"/>
<path d="M82.9137 4.07323C84.7796 4.07323 86.2922 3.24731 86.2922 2.22849C86.2922 1.20966 84.7796 0.383743 82.9137 0.383743C81.0478 0.383743 79.5352 1.20966 79.5352 2.22849C79.5352 3.24731 81.0478 4.07323 82.9137 4.07323Z" fill="#57B894"/>
<path d="M82.4914 3.75735C84.3572 3.75735 85.8699 2.93143 85.8699 1.91261C85.8699 0.893784 84.3572 0.0678645 82.4914 0.0678645C80.6255 0.0678645 79.1129 0.893784 79.1129 1.91261C79.1129 2.93143 80.6255 3.75735 82.4914 3.75735Z" stroke="#3F3D56" stroke-miterlimit="10"/>
<path d="M102.481 8.50424C104.347 8.50424 105.859 7.67832 105.859 6.65949C105.859 5.64067 104.347 4.81475 102.481 4.81475C100.615 4.81475 99.1023 5.64067 99.1023 6.65949C99.1023 7.67832 100.615 8.50424 102.481 8.50424Z" fill="#57B894"/>
<path d="M102.058 8.18773C103.924 8.18773 105.437 7.36181 105.437 6.34299C105.437 5.32416 103.924 4.49824 102.058 4.49824C100.193 4.49824 98.68 5.32416 98.68 6.34299C98.68 7.36181 100.193 8.18773 102.058 8.18773Z" stroke="#3F3D56" stroke-miterlimit="10"/>
<path d="M71.3705 23.0632C73.2364 23.0632 74.749 22.2373 74.749 21.2185C74.749 20.1997 73.2364 19.3737 71.3705 19.3737C69.5046 19.3737 67.992 20.1997 67.992 21.2185C67.992 22.2373 69.5046 23.0632 71.3705 23.0632Z" fill="#57B894"/>
<path d="M70.9482 22.7467C72.8141 22.7467 74.3267 21.9208 74.3267 20.902C74.3267 19.8832 72.8141 19.0573 70.9482 19.0573C69.0823 19.0573 67.5697 19.8832 67.5697 20.902C67.5697 21.9208 69.0823 22.7467 70.9482 22.7467Z" stroke="#3F3D56" stroke-miterlimit="10"/>
<path d="M83.0545 22.1137C84.9203 22.1137 86.4329 21.2878 86.4329 20.269C86.4329 19.2502 84.9203 18.4242 83.0545 18.4242C81.1886 18.4242 79.676 19.2502 79.676 20.269C79.676 21.2878 81.1886 22.1137 83.0545 22.1137Z" fill="#57B894"/>
<path d="M82.6321 21.7972C84.498 21.7972 86.0106 20.9713 86.0106 19.9525C86.0106 18.9337 84.498 18.1078 82.6321 18.1078C80.7663 18.1078 79.2537 18.9337 79.2537 19.9525C79.2537 20.9713 80.7663 21.7972 82.6321 21.7972Z" stroke="#3F3D56" stroke-miterlimit="10"/>
<path d="M98.3984 23.538C100.264 23.538 101.777 22.7121 101.777 21.6932C101.777 20.6744 100.264 19.8485 98.3984 19.8485C96.5325 19.8485 95.0199 20.6744 95.0199 21.6932C95.0199 22.7121 96.5325 23.538 98.3984 23.538Z" fill="#57B894"/>
<path d="M97.9761 23.2215C99.842 23.2215 101.355 22.3956 101.355 21.3767C101.355 20.3579 99.842 19.532 97.9761 19.532C96.1102 19.532 94.5976 20.3579 94.5976 21.3767C94.5976 22.3956 96.1102 23.2215 97.9761 23.2215Z" stroke="#3F3D56" stroke-miterlimit="10"/>
<path d="M90.2337 24.171C92.0996 24.171 93.6122 23.3451 93.6122 22.3262C93.6122 21.3074 92.0996 20.4815 90.2337 20.4815C88.3679 20.4815 86.8553 21.3074 86.8553 22.3262C86.8553 23.3451 88.3679 24.171 90.2337 24.171Z" fill="#57B894"/>
<path d="M89.8114 23.8545C91.6773 23.8545 93.1899 23.0286 93.1899 22.0097C93.1899 20.9909 91.6773 20.165 89.8114 20.165C87.9455 20.165 86.4329 20.9909 86.4329 22.0097C86.4329 23.0286 87.9455 23.8545 89.8114 23.8545Z" stroke="#3F3D56" stroke-miterlimit="10"/>
<path d="M90.7968 8.34599C92.6627 8.34599 94.1753 7.52007 94.1753 6.50124C94.1753 5.48242 92.6627 4.6565 90.7968 4.6565C88.9309 4.6565 87.4183 5.48242 87.4183 6.50124C87.4183 7.52007 88.9309 8.34599 90.7968 8.34599Z" fill="#57B894"/>
<path d="M90.3745 8.02949C92.2404 8.02949 93.753 7.20357 93.753 6.18474C93.753 5.16592 92.2404 4.34 90.3745 4.34C88.5086 4.34 86.996 5.16592 86.996 6.18474C86.996 7.20357 88.5086 8.02949 90.3745 8.02949Z" stroke="#3F3D56" stroke-miterlimit="10"/>
<path d="M76.2975 18.1575C78.1634 18.1575 79.6759 17.3316 79.6759 16.3127C79.6759 15.2939 78.1634 14.468 76.2975 14.468C74.4316 14.468 72.919 15.2939 72.919 16.3127C72.919 17.3316 74.4316 18.1575 76.2975 18.1575Z" fill="#57B894"/>
<path d="M75.8752 17.841C77.741 17.841 79.2536 17.0151 79.2536 15.9962C79.2536 14.9774 77.741 14.1515 75.8752 14.1515C74.0093 14.1515 72.4967 14.9774 72.4967 15.9962C72.4967 17.0151 74.0093 17.841 75.8752 17.841Z" stroke="#3F3D56" stroke-miterlimit="10"/>
<path d="M78.2683 25.2787C80.1341 25.2787 81.6467 24.4528 81.6467 23.434C81.6467 22.4152 80.1341 21.5893 78.2683 21.5893C76.4024 21.5893 74.8898 22.4152 74.8898 23.434C74.8898 24.4528 76.4024 25.2787 78.2683 25.2787Z" fill="#57B894"/>
<path d="M77.8459 24.9622C79.7118 24.9622 81.2244 24.1363 81.2244 23.1175C81.2244 22.0987 79.7118 21.2727 77.8459 21.2727C75.9801 21.2727 74.4675 22.0987 74.4675 23.1175C74.4675 24.1363 75.9801 24.9622 77.8459 24.9622Z" stroke="#3F3D56" stroke-miterlimit="10"/>
<g opacity="0.3">
<path opacity="0.3" d="M78.3469 36.03C78.8238 35.0707 78.9108 34.1048 78.5413 33.8727C78.1718 33.6405 77.4856 34.2299 77.0087 35.1892C76.5318 36.1484 76.4447 37.1143 76.8143 37.3464C77.1838 37.5786 77.87 36.9892 78.3469 36.03Z" fill="#57B894"/>
<path opacity="0.3" d="M78.1241 36.1749C78.601 35.2157 78.6881 34.2498 78.3185 34.0177C77.949 33.7855 77.2628 34.3749 76.7859 35.3341C76.309 36.2934 76.222 37.2592 76.5915 37.4914C76.9611 37.7236 77.6472 37.1342 78.1241 36.1749Z" stroke="#3F3D56" stroke-miterlimit="10"/>
</g>
<g opacity="0.3">
<path opacity="0.3" d="M95.957 40.6285C96.2394 40.2739 95.8777 39.3923 95.1493 38.6595C94.4209 37.9266 93.6016 37.62 93.3193 37.9746C93.0369 38.3292 93.3986 39.2108 94.127 39.9436C94.8554 40.6765 95.6747 40.9831 95.957 40.6285Z" fill="#57B894"/>
<path opacity="0.3" d="M95.8798 40.3525C96.1621 39.9979 95.8005 39.1163 95.0721 38.3834C94.3437 37.6506 93.5244 37.344 93.2421 37.6986C92.9598 38.0532 93.3214 38.9348 94.0498 39.6676C94.7782 40.4005 95.5975 40.7071 95.8798 40.3525Z" stroke="#3F3D56" stroke-miterlimit="10"/>
</g>
<g opacity="0.3">
<path opacity="0.3" d="M80.1908 30.6588C80.4731 30.3042 80.1115 29.4226 79.3831 28.6897C78.6547 27.9569 77.8353 27.6503 77.553 28.0049C77.2707 28.3595 77.6323 29.2411 78.3607 29.9739C79.0891 30.7068 79.9085 31.0134 80.1908 30.6588Z" fill="#57B894"/>
<path opacity="0.3" d="M80.1136 30.3827C80.3959 30.0281 80.0343 29.1466 79.3059 28.4137C78.5775 27.6808 77.7582 27.3742 77.4758 27.7288C77.1935 28.0835 77.5551 28.965 78.2835 29.6979C79.0119 30.4307 79.8313 30.7373 80.1136 30.3827Z" stroke="#3F3D56" stroke-miterlimit="10"/>
</g>
</g>
<defs>
<clipPath id="clip0_9_261">
<rect width="106" height="88" fill="white"/>
</clipPath>
</defs>
</svg>
